<svg width="16" height="16" viewBox="0 0 16 16" fill="none" xmlns="http://www.w3.org/2000/svg">
<rect width="16" height="16" rx="6" fill="#D0D4DC"/>
<path d="M12.2667 12.8V11.7333C12.2667 11.1675 12.042 10.6249 11.6419 10.2248C11.2418 9.82474 10.6992 9.59998 10.1334 9.59998H5.86673C5.30094 9.59998 4.75831 9.82474 4.35824 10.2248C3.95816 10.6249 3.7334 11.1675 3.7334 11.7333V12.8" stroke="white" stroke-width="1.06667" stroke-linecap="round" stroke-linejoin="round"/>
<path d="M8.00003 7.46662C9.17824 7.46662 10.1334 6.51149 10.1334 5.33328C10.1334 4.15508 9.17824 3.19995 8.00003 3.19995C6.82183 3.19995 5.8667 4.15508 5.8667 5.33328C5.8667 6.51149 6.82183 7.46662 8.00003 7.46662Z" stroke="white" stroke-width="1.06667" stroke-linecap="round" stroke-linejoin="round"/>
</svg>
